<mxfile host="65bd71144e" modified="2021-02-13T18:15:23.118Z" agent="5.0 (Windows NT 10.0; Win64; x64) AppleWebKit/537.36 (KHTML, like Gecko) Code/1.53.1 Chrome/87.0.4280.141 Electron/11.2.1 Safari/537.36" etag="HPIZoT6Ih9MTD1t8rvyh" version="14.2.4" type="embed">
    <diagram name="Page-1" id="9f46799a-70d6-7492-0946-bef42562c5a5">
        <mxGraphModel dx="808" dy="295" grid="1" gridSize="10" guides="1" tooltips="1" connect="1" arrows="1" fold="1" page="1" pageScale="1" pageWidth="1100" pageHeight="850" background="#ffffff" math="0" shadow="0">
            <root>
                <mxCell id="0"/>
                <mxCell id="1" parent="0"/>
                <mxCell id="78961159f06e98e8-17" value="User" style="swimlane;html=1;fontStyle=1;align=center;verticalAlign=top;childLayout=stackLayout;horizontal=1;startSize=26;horizontalStack=0;resizeParent=1;resizeLast=0;collapsible=1;marginBottom=0;swimlaneFillColor=#ffffff;rounded=0;shadow=0;comic=0;labelBackgroundColor=none;strokeWidth=1;fillColor=none;fontFamily=Verdana;fontSize=12;fontColor=#000000;" parent="1" vertex="1">
                    <mxGeometry x="780" y="270" width="160" height="160" as="geometry"/>
                </mxCell>
                <mxCell id="78961159f06e98e8-21" value="&lt;b&gt;PK id&lt;/b&gt;" style="text;html=1;strokeColor=#6c8ebf;fillColor=#dae8fc;align=left;verticalAlign=top;spacingLeft=4;spacingRight=4;whiteSpace=wrap;overflow=hidden;rotatable=0;points=[[0,0.5],[1,0.5]];portConstraint=eastwest;fontColor=#000000;" parent="78961159f06e98e8-17" vertex="1">
                    <mxGeometry y="26" width="160" height="26" as="geometry"/>
                </mxCell>
                <mxCell id="78961159f06e98e8-23" value="string username" style="text;html=1;strokeColor=none;fillColor=none;align=left;verticalAlign=top;spacingLeft=4;spacingRight=4;whiteSpace=wrap;overflow=hidden;rotatable=0;points=[[0,0.5],[1,0.5]];portConstraint=eastwest;fontColor=#000000;" parent="78961159f06e98e8-17" vertex="1">
                    <mxGeometry y="52" width="160" height="26" as="geometry"/>
                </mxCell>
                <mxCell id="78961159f06e98e8-25" value="string email (unique)" style="text;html=1;strokeColor=none;fillColor=none;align=left;verticalAlign=top;spacingLeft=4;spacingRight=4;whiteSpace=wrap;overflow=hidden;rotatable=0;points=[[0,0.5],[1,0.5]];portConstraint=eastwest;fontColor=#000000;" parent="78961159f06e98e8-17" vertex="1">
                    <mxGeometry y="78" width="160" height="26" as="geometry"/>
                </mxCell>
                <mxCell id="78961159f06e98e8-26" value="string password" style="text;html=1;strokeColor=none;fillColor=none;align=left;verticalAlign=top;spacingLeft=4;spacingRight=4;whiteSpace=wrap;overflow=hidden;rotatable=0;points=[[0,0.5],[1,0.5]];portConstraint=eastwest;fontColor=#000000;" parent="78961159f06e98e8-17" vertex="1">
                    <mxGeometry y="104" width="160" height="26" as="geometry"/>
                </mxCell>
                <mxCell id="78961159f06e98e8-24" value="&lt;b&gt;FK imageFileId&lt;/b&gt;" style="text;html=1;strokeColor=none;fillColor=none;align=left;verticalAlign=top;spacingLeft=4;spacingRight=4;whiteSpace=wrap;overflow=hidden;rotatable=0;points=[[0,0.5],[1,0.5]];portConstraint=eastwest;fontColor=#000000;" parent="78961159f06e98e8-17" vertex="1">
                    <mxGeometry y="130" width="160" height="26" as="geometry"/>
                </mxCell>
                <mxCell id="78961159f06e98e8-30" value="Artist" style="swimlane;html=1;fontStyle=1;align=center;verticalAlign=top;childLayout=stackLayout;horizontal=1;startSize=26;horizontalStack=0;resizeParent=1;resizeLast=0;collapsible=1;marginBottom=0;swimlaneFillColor=#ffffff;rounded=0;shadow=0;comic=0;labelBackgroundColor=none;strokeWidth=1;fillColor=none;fontFamily=Verdana;fontSize=12;fontColor=#000000;" parent="1" vertex="1">
                    <mxGeometry x="50" y="220" width="160" height="117" as="geometry"/>
                </mxCell>
                <mxCell id="78961159f06e98e8-31" value="&lt;b&gt;PK id&lt;/b&gt;" style="text;html=1;strokeColor=#6c8ebf;fillColor=#dae8fc;align=left;verticalAlign=top;spacingLeft=4;spacingRight=4;whiteSpace=wrap;overflow=hidden;rotatable=0;points=[[0,0.5],[1,0.5]];portConstraint=eastwest;fontColor=#000000;" parent="78961159f06e98e8-30" vertex="1">
                    <mxGeometry y="26" width="160" height="26" as="geometry"/>
                </mxCell>
                <mxCell id="78961159f06e98e8-32" value="string name" style="text;html=1;strokeColor=none;fillColor=none;align=left;verticalAlign=top;spacingLeft=4;spacingRight=4;whiteSpace=wrap;overflow=hidden;rotatable=0;points=[[0,0.5],[1,0.5]];portConstraint=eastwest;fontColor=#000000;" parent="78961159f06e98e8-30" vertex="1">
                    <mxGeometry y="52" width="160" height="26" as="geometry"/>
                </mxCell>
                <mxCell id="78961159f06e98e8-33" value="&lt;b&gt;FK imageFileId&lt;/b&gt;" style="text;html=1;strokeColor=none;fillColor=none;align=left;verticalAlign=top;spacingLeft=4;spacingRight=4;whiteSpace=wrap;overflow=hidden;rotatable=0;points=[[0,0.5],[1,0.5]];portConstraint=eastwest;fontColor=#000000;" parent="78961159f06e98e8-30" vertex="1">
                    <mxGeometry y="78" width="160" height="26" as="geometry"/>
                </mxCell>
                <mxCell id="dPTJl3S5OsdJ7ELAq9D5-3" value="Album" style="swimlane;html=1;fontStyle=1;align=center;verticalAlign=top;childLayout=stackLayout;horizontal=1;startSize=26;horizontalStack=0;resizeParent=1;resizeLast=0;collapsible=1;marginBottom=0;swimlaneFillColor=#ffffff;rounded=0;shadow=0;comic=0;labelBackgroundColor=none;strokeWidth=1;fillColor=none;fontFamily=Verdana;fontSize=12;fontColor=#000000;" parent="1" vertex="1">
                    <mxGeometry x="50" y="360" width="160" height="164" as="geometry"/>
                </mxCell>
                <mxCell id="dPTJl3S5OsdJ7ELAq9D5-4" value="&lt;b&gt;PK id&lt;/b&gt;" style="text;html=1;strokeColor=#6c8ebf;fillColor=#dae8fc;align=left;verticalAlign=top;spacingLeft=4;spacingRight=4;whiteSpace=wrap;overflow=hidden;rotatable=0;points=[[0,0.5],[1,0.5]];portConstraint=eastwest;fontColor=#000000;" parent="dPTJl3S5OsdJ7ELAq9D5-3" vertex="1">
                    <mxGeometry y="26" width="160" height="26" as="geometry"/>
                </mxCell>
                <mxCell id="dPTJl3S5OsdJ7ELAq9D5-17" value="string&amp;nbsp;name" style="text;html=1;strokeColor=none;fillColor=none;align=left;verticalAlign=top;spacingLeft=4;spacingRight=4;whiteSpace=wrap;overflow=hidden;rotatable=0;points=[[0,0.5],[1,0.5]];portConstraint=eastwest;fontColor=#000000;" parent="dPTJl3S5OsdJ7ELAq9D5-3" vertex="1">
                    <mxGeometry y="52" width="160" height="30" as="geometry"/>
                </mxCell>
                <mxCell id="dPTJl3S5OsdJ7ELAq9D5-5" value="&lt;b&gt;FK &lt;/b&gt;artistId" style="text;html=1;strokeColor=none;fillColor=none;align=left;verticalAlign=top;spacingLeft=4;spacingRight=4;whiteSpace=wrap;overflow=hidden;rotatable=0;points=[[0,0.5],[1,0.5]];portConstraint=eastwest;fontColor=#000000;" parent="dPTJl3S5OsdJ7ELAq9D5-3" vertex="1">
                    <mxGeometry y="82" width="160" height="26" as="geometry"/>
                </mxCell>
                <mxCell id="dPTJl3S5OsdJ7ELAq9D5-23" value="Year releaseYear" style="text;html=1;strokeColor=none;fillColor=none;align=left;verticalAlign=top;spacingLeft=4;spacingRight=4;whiteSpace=wrap;overflow=hidden;rotatable=0;points=[[0,0.5],[1,0.5]];portConstraint=eastwest;fontColor=#000000;" parent="dPTJl3S5OsdJ7ELAq9D5-3" vertex="1">
                    <mxGeometry y="108" width="160" height="26" as="geometry"/>
                </mxCell>
                <mxCell id="dPTJl3S5OsdJ7ELAq9D5-7" value="&lt;b&gt;FK imageFileId&lt;/b&gt;" style="text;html=1;strokeColor=none;fillColor=none;align=left;verticalAlign=top;spacingLeft=4;spacingRight=4;whiteSpace=wrap;overflow=hidden;rotatable=0;points=[[0,0.5],[1,0.5]];portConstraint=eastwest;fontColor=#000000;" parent="dPTJl3S5OsdJ7ELAq9D5-3" vertex="1">
                    <mxGeometry y="134" width="160" height="30" as="geometry"/>
                </mxCell>
                <mxCell id="dPTJl3S5OsdJ7ELAq9D5-18" value="SingleSong" style="swimlane;html=1;fontStyle=1;align=center;verticalAlign=top;childLayout=stackLayout;horizontal=1;startSize=26;horizontalStack=0;resizeParent=1;resizeLast=0;collapsible=1;marginBottom=0;swimlaneFillColor=#ffffff;rounded=0;shadow=0;comic=0;labelBackgroundColor=none;strokeWidth=1;fillColor=none;fontFamily=Verdana;fontSize=12;fontColor=#000000;" parent="1" vertex="1">
                    <mxGeometry x="520" y="584" width="160" height="190" as="geometry"/>
                </mxCell>
                <mxCell id="dPTJl3S5OsdJ7ELAq9D5-19" value="&lt;b&gt;PrimaryKey(name, artistId)&lt;/b&gt;" style="text;html=1;strokeColor=#6c8ebf;fillColor=#dae8fc;align=left;verticalAlign=top;spacingLeft=4;spacingRight=4;whiteSpace=wrap;overflow=hidden;rotatable=0;points=[[0,0.5],[1,0.5]];portConstraint=eastwest;fontColor=#000000;" parent="dPTJl3S5OsdJ7ELAq9D5-18" vertex="1">
                    <mxGeometry y="26" width="160" height="44" as="geometry"/>
                </mxCell>
                <mxCell id="dPTJl3S5OsdJ7ELAq9D5-27" value="&lt;b&gt;FK artistId&lt;/b&gt;" style="text;html=1;strokeColor=none;fillColor=none;align=left;verticalAlign=top;spacingLeft=4;spacingRight=4;whiteSpace=wrap;overflow=hidden;rotatable=0;points=[[0,0.5],[1,0.5]];portConstraint=eastwest;fontColor=#000000;" parent="dPTJl3S5OsdJ7ELAq9D5-18" vertex="1">
                    <mxGeometry y="70" width="160" height="26" as="geometry"/>
                </mxCell>
                <mxCell id="dPTJl3S5OsdJ7ELAq9D5-72" value="&lt;b&gt;FK imageId&lt;/b&gt;" style="text;html=1;align=left;verticalAlign=top;spacingLeft=4;spacingRight=4;whiteSpace=wrap;overflow=hidden;rotatable=0;points=[[0,0.5],[1,0.5]];portConstraint=eastwest;fontColor=#000000;" parent="dPTJl3S5OsdJ7ELAq9D5-18" vertex="1">
                    <mxGeometry y="96" width="160" height="26" as="geometry"/>
                </mxCell>
                <mxCell id="dPTJl3S5OsdJ7ELAq9D5-66" value="Date releaseDate" style="text;html=1;strokeColor=none;fillColor=none;align=left;verticalAlign=top;spacingLeft=4;spacingRight=4;whiteSpace=wrap;overflow=hidden;rotatable=0;points=[[0,0.5],[1,0.5]];portConstraint=eastwest;fontColor=#000000;" parent="dPTJl3S5OsdJ7ELAq9D5-18" vertex="1">
                    <mxGeometry y="122" width="160" height="26" as="geometry"/>
                </mxCell>
                <mxCell id="dPTJl3S5OsdJ7ELAq9D5-24" value="AlbumSong" style="swimlane;html=1;fontStyle=1;align=center;verticalAlign=top;childLayout=stackLayout;horizontal=1;startSize=26;horizontalStack=0;resizeParent=1;resizeLast=0;collapsible=1;marginBottom=0;swimlaneFillColor=#ffffff;rounded=0;shadow=0;comic=0;labelBackgroundColor=none;strokeWidth=1;fillColor=none;fontFamily=Verdana;fontSize=12;fontColor=#000000;" parent="1" vertex="1">
                    <mxGeometry x="300" y="634" width="160" height="140" as="geometry"/>
                </mxCell>
                <mxCell id="dPTJl3S5OsdJ7ELAq9D5-25" value="&lt;b&gt;PrimaryKey(songId, albumId)&lt;/b&gt;" style="text;html=1;strokeColor=#6c8ebf;fillColor=#dae8fc;align=left;verticalAlign=top;spacingLeft=4;spacingRight=4;whiteSpace=wrap;overflow=hidden;rotatable=0;points=[[0,0.5],[1,0.5]];portConstraint=eastwest;fontColor=#000000;" parent="dPTJl3S5OsdJ7ELAq9D5-24" vertex="1">
                    <mxGeometry y="26" width="160" height="44" as="geometry"/>
                </mxCell>
                <mxCell id="dPTJl3S5OsdJ7ELAq9D5-26" value="&lt;b&gt;FK songId&lt;/b&gt;" style="text;html=1;strokeColor=none;fillColor=none;align=left;verticalAlign=top;spacingLeft=4;spacingRight=4;whiteSpace=wrap;overflow=hidden;rotatable=0;points=[[0,0.5],[1,0.5]];portConstraint=eastwest;fontColor=#000000;" parent="dPTJl3S5OsdJ7ELAq9D5-24" vertex="1">
                    <mxGeometry y="70" width="160" height="30" as="geometry"/>
                </mxCell>
                <mxCell id="dPTJl3S5OsdJ7ELAq9D5-28" value="&lt;b&gt;FK albumId&lt;/b&gt;" style="text;html=1;strokeColor=none;fillColor=none;align=left;verticalAlign=top;spacingLeft=4;spacingRight=4;whiteSpace=wrap;overflow=hidden;rotatable=0;points=[[0,0.5],[1,0.5]];portConstraint=eastwest;fontColor=#000000;" parent="dPTJl3S5OsdJ7ELAq9D5-24" vertex="1">
                    <mxGeometry y="100" width="160" height="30" as="geometry"/>
                </mxCell>
                <mxCell id="dPTJl3S5OsdJ7ELAq9D5-30" value="SongFeaturings" style="swimlane;html=1;fontStyle=1;align=center;verticalAlign=top;childLayout=stackLayout;horizontal=1;startSize=26;horizontalStack=0;resizeParent=1;resizeLast=0;collapsible=1;marginBottom=0;swimlaneFillColor=#ffffff;rounded=0;shadow=0;comic=0;labelBackgroundColor=none;strokeWidth=1;fillColor=none;fontFamily=Verdana;fontSize=12;fontColor=#000000;" parent="1" vertex="1">
                    <mxGeometry x="770" y="624" width="190" height="150" as="geometry"/>
                </mxCell>
                <mxCell id="dPTJl3S5OsdJ7ELAq9D5-31" value="&lt;b&gt;FK songId&lt;/b&gt;" style="text;html=1;strokeColor=none;fillColor=none;align=left;verticalAlign=top;spacingLeft=4;spacingRight=4;whiteSpace=wrap;overflow=hidden;rotatable=0;points=[[0,0.5],[1,0.5]];portConstraint=eastwest;fontColor=#000000;" parent="dPTJl3S5OsdJ7ELAq9D5-30" vertex="1">
                    <mxGeometry y="26" width="190" height="26" as="geometry"/>
                </mxCell>
                <mxCell id="dPTJl3S5OsdJ7ELAq9D5-33" value="&lt;b&gt;FK featuringArtistId&lt;/b&gt;" style="text;html=1;strokeColor=none;fillColor=none;align=left;verticalAlign=top;spacingLeft=4;spacingRight=4;whiteSpace=wrap;overflow=hidden;rotatable=0;points=[[0,0.5],[1,0.5]];portConstraint=eastwest;fontColor=#000000;" parent="dPTJl3S5OsdJ7ELAq9D5-30" vertex="1">
                    <mxGeometry y="52" width="190" height="26" as="geometry"/>
                </mxCell>
                <mxCell id="dPTJl3S5OsdJ7ELAq9D5-34" value="&lt;b&gt;PrimaryKey (songId, artistId)&lt;/b&gt;" style="text;html=1;strokeColor=#6c8ebf;fillColor=#dae8fc;align=left;verticalAlign=top;spacingLeft=4;spacingRight=4;whiteSpace=wrap;overflow=hidden;rotatable=0;points=[[0,0.5],[1,0.5]];portConstraint=eastwest;fontColor=#000000;" parent="dPTJl3S5OsdJ7ELAq9D5-30" vertex="1">
                    <mxGeometry y="78" width="190" height="32" as="geometry"/>
                </mxCell>
                <mxCell id="dPTJl3S5OsdJ7ELAq9D5-35" value="Song" style="swimlane;html=1;fontStyle=1;align=center;verticalAlign=top;childLayout=stackLayout;horizontal=1;startSize=26;horizontalStack=0;resizeParent=1;resizeLast=0;collapsible=1;marginBottom=0;swimlaneFillColor=#ffffff;rounded=0;shadow=0;comic=0;labelBackgroundColor=none;strokeWidth=1;fillColor=none;fontFamily=Verdana;fontSize=12;fontColor=#000000;" parent="1" vertex="1">
                    <mxGeometry x="80" y="634" width="160" height="140" as="geometry"/>
                </mxCell>
                <mxCell id="dPTJl3S5OsdJ7ELAq9D5-36" value="&lt;b&gt;PK id&lt;/b&gt;" style="text;html=1;strokeColor=#6c8ebf;fillColor=#dae8fc;align=left;verticalAlign=top;spacingLeft=4;spacingRight=4;whiteSpace=wrap;overflow=hidden;rotatable=0;points=[[0,0.5],[1,0.5]];portConstraint=eastwest;fontColor=#000000;" parent="dPTJl3S5OsdJ7ELAq9D5-35" vertex="1">
                    <mxGeometry y="26" width="160" height="26" as="geometry"/>
                </mxCell>
                <mxCell id="dPTJl3S5OsdJ7ELAq9D5-37" value="string&amp;nbsp;name" style="text;html=1;strokeColor=none;fillColor=none;align=left;verticalAlign=top;spacingLeft=4;spacingRight=4;whiteSpace=wrap;overflow=hidden;rotatable=0;points=[[0,0.5],[1,0.5]];portConstraint=eastwest;fontColor=#000000;" parent="dPTJl3S5OsdJ7ELAq9D5-35" vertex="1">
                    <mxGeometry y="52" width="160" height="30" as="geometry"/>
                </mxCell>
                <mxCell id="dPTJl3S5OsdJ7ELAq9D5-76" value="&lt;b&gt;FK audioFileId&lt;/b&gt;" style="text;html=1;strokeColor=none;fillColor=none;align=left;verticalAlign=top;spacingLeft=4;spacingRight=4;whiteSpace=wrap;overflow=hidden;rotatable=0;points=[[0,0.5],[1,0.5]];portConstraint=eastwest;fontColor=#000000;" parent="dPTJl3S5OsdJ7ELAq9D5-35" vertex="1">
                    <mxGeometry y="82" width="160" height="30" as="geometry"/>
                </mxCell>
                <mxCell id="dPTJl3S5OsdJ7ELAq9D5-46" value="File" style="swimlane;html=1;fontStyle=1;align=center;verticalAlign=top;childLayout=stackLayout;horizontal=1;startSize=26;horizontalStack=0;resizeParent=1;resizeLast=0;collapsible=1;marginBottom=0;swimlaneFillColor=#ffffff;rounded=0;shadow=0;comic=0;labelBackgroundColor=none;strokeWidth=1;fillColor=none;fontFamily=Verdana;fontSize=12;fontColor=#000000;" parent="1" vertex="1">
                    <mxGeometry x="310" y="40" width="160" height="150" as="geometry"/>
                </mxCell>
                <mxCell id="dPTJl3S5OsdJ7ELAq9D5-49" value="&lt;b&gt;PK id&lt;/b&gt;" style="text;html=1;strokeColor=#6c8ebf;fillColor=#dae8fc;align=left;verticalAlign=top;spacingLeft=4;spacingRight=4;whiteSpace=wrap;overflow=hidden;rotatable=0;points=[[0,0.5],[1,0.5]];portConstraint=eastwest;fontColor=#000000;" parent="dPTJl3S5OsdJ7ELAq9D5-46" vertex="1">
                    <mxGeometry y="26" width="160" height="44" as="geometry"/>
                </mxCell>
                <mxCell id="dPTJl3S5OsdJ7ELAq9D5-47" value="string name" style="text;html=1;strokeColor=none;fillColor=none;align=left;verticalAlign=top;spacingLeft=4;spacingRight=4;whiteSpace=wrap;overflow=hidden;rotatable=0;points=[[0,0.5],[1,0.5]];portConstraint=eastwest;fontColor=#000000;" parent="dPTJl3S5OsdJ7ELAq9D5-46" vertex="1">
                    <mxGeometry y="70" width="160" height="26" as="geometry"/>
                </mxCell>
                <mxCell id="dPTJl3S5OsdJ7ELAq9D5-48" value="string directory" style="text;html=1;strokeColor=none;fillColor=none;align=left;verticalAlign=top;spacingLeft=4;spacingRight=4;whiteSpace=wrap;overflow=hidden;rotatable=0;points=[[0,0.5],[1,0.5]];portConstraint=eastwest;fontColor=#000000;" parent="dPTJl3S5OsdJ7ELAq9D5-46" vertex="1">
                    <mxGeometry y="96" width="160" height="54" as="geometry"/>
                </mxCell>
                <mxCell id="dPTJl3S5OsdJ7ELAq9D5-50" value="ImageFile" style="swimlane;html=1;fontStyle=1;align=center;verticalAlign=top;childLayout=stackLayout;horizontal=1;startSize=26;horizontalStack=0;resizeParent=1;resizeLast=0;collapsible=1;marginBottom=0;swimlaneFillColor=#ffffff;rounded=0;shadow=0;comic=0;labelBackgroundColor=none;strokeWidth=1;fontFamily=Verdana;fontSize=12;fontColor=#000000;" parent="1" vertex="1">
                    <mxGeometry x="500" y="40" width="160" height="80" as="geometry"/>
                </mxCell>
                <mxCell id="dPTJl3S5OsdJ7ELAq9D5-51" value="&lt;b&gt;FK fileId&lt;/b&gt;" style="text;html=1;align=left;verticalAlign=top;spacingLeft=4;spacingRight=4;whiteSpace=wrap;overflow=hidden;rotatable=0;points=[[0,0.5],[1,0.5]];portConstraint=eastwest;fontColor=#000000;" parent="dPTJl3S5OsdJ7ELAq9D5-50" vertex="1">
                    <mxGeometry y="26" width="160" height="24" as="geometry"/>
                </mxCell>
                <mxCell id="dPTJl3S5OsdJ7ELAq9D5-83" value="&lt;b&gt;PrimaryKey(fileId)&lt;/b&gt;" style="text;html=1;align=left;verticalAlign=top;spacingLeft=4;spacingRight=4;whiteSpace=wrap;overflow=hidden;rotatable=0;points=[[0,0.5],[1,0.5]];portConstraint=eastwest;fillColor=#dae8fc;strokeColor=#6c8ebf;fontColor=#000000;" parent="dPTJl3S5OsdJ7ELAq9D5-50" vertex="1">
                    <mxGeometry y="50" width="160" height="24" as="geometry"/>
                </mxCell>
                <mxCell id="dPTJl3S5OsdJ7ELAq9D5-77" value="Likes" style="swimlane;html=1;fontStyle=1;align=center;verticalAlign=top;childLayout=stackLayout;horizontal=1;startSize=26;horizontalStack=0;resizeParent=1;resizeLast=0;collapsible=1;marginBottom=0;swimlaneFillColor=#ffffff;rounded=0;shadow=0;comic=0;labelBackgroundColor=none;strokeWidth=1;fontFamily=Verdana;fontSize=12;fontColor=#000000;" parent="1" vertex="1">
                    <mxGeometry x="390" y="280" width="160" height="150" as="geometry"/>
                </mxCell>
                <mxCell id="dPTJl3S5OsdJ7ELAq9D5-78" value="&lt;b&gt;FK userId&lt;/b&gt;" style="text;html=1;align=left;verticalAlign=top;spacingLeft=4;spacingRight=4;whiteSpace=wrap;overflow=hidden;rotatable=0;points=[[0,0.5],[1,0.5]];portConstraint=eastwest;fontColor=#000000;" parent="dPTJl3S5OsdJ7ELAq9D5-77" vertex="1">
                    <mxGeometry y="26" width="160" height="34" as="geometry"/>
                </mxCell>
                <mxCell id="dPTJl3S5OsdJ7ELAq9D5-79" value="&lt;b&gt;FK songId&lt;/b&gt;" style="text;html=1;align=left;verticalAlign=top;spacingLeft=4;spacingRight=4;whiteSpace=wrap;overflow=hidden;rotatable=0;points=[[0,0.5],[1,0.5]];portConstraint=eastwest;fontColor=#000000;" parent="dPTJl3S5OsdJ7ELAq9D5-77" vertex="1">
                    <mxGeometry y="60" width="160" height="24" as="geometry"/>
                </mxCell>
                <mxCell id="dPTJl3S5OsdJ7ELAq9D5-80" value="&lt;b&gt;PrimaryKey(userId, songId)&lt;/b&gt;" style="text;html=1;align=left;verticalAlign=top;spacingLeft=4;spacingRight=4;whiteSpace=wrap;overflow=hidden;rotatable=0;points=[[0,0.5],[1,0.5]];portConstraint=eastwest;fillColor=#dae8fc;strokeColor=#6c8ebf;fontColor=#000000;" parent="dPTJl3S5OsdJ7ELAq9D5-77" vertex="1">
                    <mxGeometry y="84" width="160" height="36" as="geometry"/>
                </mxCell>
                <mxCell id="dPTJl3S5OsdJ7ELAq9D5-85" value="AudioFile" style="swimlane;html=1;fontStyle=1;align=center;verticalAlign=top;childLayout=stackLayout;horizontal=1;startSize=26;horizontalStack=0;resizeParent=1;resizeLast=0;collapsible=1;marginBottom=0;swimlaneFillColor=#ffffff;rounded=0;shadow=0;comic=0;labelBackgroundColor=none;strokeWidth=1;fontFamily=Verdana;fontSize=12;fontColor=#000000;" parent="1" vertex="1">
                    <mxGeometry x="500" y="140" width="160" height="80" as="geometry"/>
                </mxCell>
                <mxCell id="dPTJl3S5OsdJ7ELAq9D5-86" value="&lt;b&gt;FK fileId&lt;/b&gt;" style="text;html=1;align=left;verticalAlign=top;spacingLeft=4;spacingRight=4;whiteSpace=wrap;overflow=hidden;rotatable=0;points=[[0,0.5],[1,0.5]];portConstraint=eastwest;fontColor=#000000;" parent="dPTJl3S5OsdJ7ELAq9D5-85" vertex="1">
                    <mxGeometry y="26" width="160" height="24" as="geometry"/>
                </mxCell>
                <mxCell id="dPTJl3S5OsdJ7ELAq9D5-87" value="&lt;b&gt;PrimaryKey(fileId)&lt;/b&gt;" style="text;html=1;align=left;verticalAlign=top;spacingLeft=4;spacingRight=4;whiteSpace=wrap;overflow=hidden;rotatable=0;points=[[0,0.5],[1,0.5]];portConstraint=eastwest;fillColor=#dae8fc;strokeColor=#6c8ebf;fontColor=#000000;" parent="dPTJl3S5OsdJ7ELAq9D5-85" vertex="1">
                    <mxGeometry y="50" width="160" height="24" as="geometry"/>
                </mxCell>
                <mxCell id="2" style="edgeStyle=orthogonalEdgeStyle;rounded=0;orthogonalLoop=1;jettySize=auto;html=1;exitX=1;exitY=0.5;exitDx=0;exitDy=0;fontColor=#000000;" parent="1" source="78961159f06e98e8-25" edge="1">
                    <mxGeometry relative="1" as="geometry">
                        <mxPoint x="920" y="260" as="targetPoint"/>
                    </mxGeometry>
                </mxCell>
            </root>
        </mxGraphModel>
    </diagram>
</mxfile>